<svg xmlns="http://www.w3.org/2000/svg" xmlns:xlink="http://www.w3.org/1999/xlink" width="950" height="602.75"><rect width="950" height="602.75" rx="5" ry="5" class="a"></rect><svg y="0%" x="0%"><circle cx="20" cy="20" r="6" class="b"></circle><circle cx="40" cy="20" r="6" class="c"></circle><circle cx="60" cy="20" r="6" class="d"></circle></svg><svg height="542.75" viewBox="0 0 91 54.275" width="910" x="15" xmlns="http://www.w3.org/2000/svg" xmlns:xlink="http://www.w3.org/1999/xlink" y="50"><style>.a{fill:rgb(40,45,53)}.b{fill:#ff5f58}.c{fill:#ffbd2e}.d{fill:#18c132}.e{font-family:Monaco,Consolas,Menlo,'Bitstream Vera Sans Mono','Powerline Symbols',monospace}.f{fill:rgb(168,204,140);font-weight:bold;white-space:pre}.g{fill:rgb(185,192,203);white-space:pre}.h{fill:rgb(113,190,242);font-weight:bold;white-space:pre}.i{fill:rgb(185,191,202);white-space:pre}.j{fill:rgb(185,191,202);font-weight:bold;white-space:pre}.k{fill:rgb(119,193,178);white-space:pre}.l{fill:transparent}.m{fill:rgb(111,118,131)}.o{animation-duration:11.264034s;animation-iteration-count:infinite;animation-name:n;animation-timing-function:steps(1,end)}@keyframes n{0%{transform:translateX(-0px)}5.7%{transform:translateX(-91px)}17.2%{transform:translateX(-182px)}18.4%{transform:translateX(-273px)}19.6%{transform:translateX(-364px)}20.5%{transform:translateX(-455px)}21.6%{transform:translateX(-546px)}22.6%{transform:translateX(-637px)}23.9%{transform:translateX(-728px)}25.3%{transform:translateX(-819px)}26.4%{transform:translateX(-910px)}27.6%{transform:translateX(-1001px)}31%{transform:translateX(-1092px)}31%{transform:translateX(-1183px)}32.2%{transform:translateX(-1274px)}33.3%{transform:translateX(-1365px)}34.5%{transform:translateX(-1456px)}35.6%{transform:translateX(-1547px)}36.8%{transform:translateX(-1638px)}37.9%{transform:translateX(-1729px)}39.1%{transform:translateX(-1820px)}40.2%{transform:translateX(-1911px)}41.4%{transform:translateX(-2002px)}42.6%{transform:translateX(-2093px)}43.7%{transform:translateX(-2184px)}44.9%{transform:translateX(-2275px)}44.9%{transform:translateX(-2366px)}53.4%{transform:translateX(-2457px)}54.7%{transform:translateX(-2548px)}56.1%{transform:translateX(-2639px)}57.3%{transform:translateX(-2730px)}58.6%{transform:translateX(-2821px)}59.5%{transform:translateX(-2912px)}60.5%{transform:translateX(-3003px)}61.8%{transform:translateX(-3094px)}62.7%{transform:translateX(-3185px)}63.7%{transform:translateX(-3276px)}65%{transform:translateX(-3367px)}66.1%{transform:translateX(-3458px)}67.5%{transform:translateX(-3549px)}68.5%{transform:translateX(-3640px)}70.1%{transform:translateX(-3731px)}70.3%{transform:translateX(-3822px)}70.3%{transform:translateX(-3913px)}70.3%{transform:translateX(-4004px)}100%{transform:translateX(-4095px)}}</style><g font-family="Monaco, Consolas, Menlo, &#x27;Bitstream Vera Sans Mono&#x27;, &#x27;Powerline Symbols&#x27;, monospace" font-size="1.67" class="e"><defs><symbol id="1"><text x="0" y="1.67" class="f">bxni</text><text x="4.008" y="1.67" class="g">:</text><text x="5.01" y="1.67" class="h">~/demo</text><text x="11.021999999999998" y="1.67" class="g">$</text></symbol><symbol id="2"><text x="0" y="1.67" class="f">bxni</text><text x="4.008" y="1.67" class="g">:</text><text x="5.01" y="1.67" class="h">~/demo</text><text x="11.021999999999998" y="1.67" class="g">$hasher</text></symbol><symbol id="3"><text x="0" y="1.67" class="f">bxni</text><text x="4.008" y="1.67" class="g">:</text><text x="5.01" y="1.67" class="h">~/demo</text><text x="11.021999999999998" y="1.67" class="g">$hasher</text><text x="19.037999999999997" y="1.67" class="g">-wr</text></symbol><symbol id="4"><text x="0" y="1.67" class="i">-</text><text x="2.004" y="1.67" class="g">Computing</text><text x="12.024" y="1.67" class="g">checksums</text><text x="22.043999999999997" y="1.67" class="g">for</text><text x="26.052" y="1.67" class="g">directory</text><text x="36.071999999999996" y="1.67" class="g">&#x27;</text><text x="37.074" y="1.67" class="j">demo</text><text x="41.082" y="1.67" class="g">&#x27;</text></symbol><symbol id="5"><text x="0" y="1.67" class="i">\</text><text x="2.004" y="1.67" class="g">Computing</text><text x="12.024" y="1.67" class="g">checksums</text><text x="22.043999999999997" y="1.67" class="g">for</text><text x="26.052" y="1.67" class="g">directory</text><text x="36.071999999999996" y="1.67" class="g">&#x27;</text><text x="37.074" y="1.67" class="j">demo</text><text x="41.082" y="1.67" class="g">&#x27;</text></symbol><symbol id="6"><text x="0" y="1.67" class="i">|</text><text x="2.004" y="1.67" class="g">Computing</text><text x="12.024" y="1.67" class="g">checksums</text><text x="22.043999999999997" y="1.67" class="g">for</text><text x="26.052" y="1.67" class="g">directory</text><text x="36.071999999999996" y="1.67" class="g">&#x27;</text><text x="37.074" y="1.67" class="j">demo</text><text x="41.082" y="1.67" class="g">&#x27;</text></symbol><symbol id="7"><text x="0" y="1.67" class="i">/</text><text x="2.004" y="1.67" class="g">Computing</text><text x="12.024" y="1.67" class="g">checksums</text><text x="22.043999999999997" y="1.67" class="g">for</text><text x="26.052" y="1.67" class="g">directory</text><text x="36.071999999999996" y="1.67" class="g">&#x27;</text><text x="37.074" y="1.67" class="j">demo</text><text x="41.082" y="1.67" class="g">&#x27;</text></symbol><symbol id="8"><text x="0" y="1.67" class="k">Status:</text><text x="8.016" y="1.67" class="g">file</text><text x="13.026" y="1.67" class="g">&#x27;</text><text x="14.027999999999999" y="1.67" class="j">demo.sha256</text><text x="25.05" y="1.67" class="g">&#x27;</text><text x="27.054" y="1.67" class="g">created</text><text x="35.06999999999999" y="1.67" class="g">and</text><text x="39.077999999999996" y="1.67" class="g">written</text><text x="47.093999999999994" y="1.67" class="g">to</text><text x="50.1" y="1.67" class="g">successfully</text></symbol><symbol id="9"><text x="0" y="1.67" class="f">bxni</text><text x="4.008" y="1.67" class="g">:</text><text x="5.01" y="1.67" class="h">~/demo</text><text x="11.021999999999998" y="1.67" class="g">$cat</text></symbol><symbol id="10"><text x="0" y="1.67" class="f">bxni</text><text x="4.008" y="1.67" class="g">:</text><text x="5.01" y="1.67" class="h">~/demo</text><text x="11.021999999999998" y="1.67" class="g">$cat</text><text x="16.032" y="1.67" class="g">demo.sha256</text></symbol><symbol id="11"><text x="0" y="1.67" class="g">a274252c4fed2153923ad5ba6b216491523809f7e3eddf66c7834ecd4b6811b8</text><text x="65.13" y="1.67" class="g">config/config_main.json</text></symbol><symbol id="12"><text x="0" y="1.67" class="g">e6e870cbada2be80647bc58a60452104444d1bbf53f480058efe0b7bb6ef3464</text><text x="65.13" y="1.67" class="g">config/config_1.xml</text></symbol><symbol id="13"><text x="0" y="1.67" class="g">ea545efce42a038610c79240160a1eca342b9cd03a0077f78713f86d458f03d8</text><text x="65.13" y="1.67" class="g">results/result_notes.txt</text></symbol><symbol id="14"><text x="0" y="1.67" class="g">ce5f0637e55224cc77479ab0568b5a0e655be1835c00caf390d74782679c54b6</text><text x="65.13" y="1.67" class="g">results/result_summary.xml</text></symbol><symbol id="15"><text x="0" y="1.67" class="g">2eb76cb6eb2f970dc577edc52dc8c8587eae782abf567f04940b9e8ec1e0fb08</text><text x="65.13" y="1.67" class="g">results/result_data.csv</text></symbol><symbol id="16"><text x="0" y="1.67" class="g">cbcc84edf96fe7c4a3f0a98be112e33859471d808979df8669364d2afd268011</text><text x="65.13" y="1.67" class="g">data/data_4.csv</text></symbol><symbol id="17"><text x="0" y="1.67" class="g">7849781889c01dd7a8d997e92a1a2cdf442e7e6be829160c7e0e15d491d81a20</text><text x="65.13" y="1.67" class="g">data/data_sample.json</text></symbol><symbol id="18"><text x="0" y="1.67" class="g">abe03cd189dfb53b97ce20eb372954327bb15a831449fa950a79b6ab8560cc0b</text><text x="65.13" y="1.67" class="g">data/data_3.csv</text></symbol><symbol id="19"><text x="0" y="1.67" class="g">bb9837a9f1511fabe97425a6b982fbad0a507e0325e97557a97aca11a888ef9d</text><text x="65.13" y="1.67" class="g">data/data_2.csv</text></symbol><symbol id="20"><text x="0" y="1.67" class="g">872d1dd41a863bb93994326cdc29235803727ab692f2094f711c1bed21653b9f</text><text x="65.13" y="1.67" class="g">data/data_5.csv</text></symbol><symbol id="21"><text x="0" y="1.67" class="g">fa05d8e879259ce3b2ff8cab96ac2b17120cd4d5bc39cd58e2cbd096619e09a1</text><text x="65.13" y="1.67" class="g">data/data_1.txt</text></symbol><symbol id="22"><text x="0" y="1.67" class="g">3a7abc56dbd38cfd788f71a044e66b2fc5ec00e8c34516e448fa5c434cf0259d</text><text x="65.13" y="1.67" class="g">data/data_6.csv</text></symbol><symbol id="23"><text x="0" y="1.67" class="g">d20ac498236db18dd77eea3fb42b6ea67ea4ace5038c6811a2551172ed95dab8</text><text x="65.13" y="1.67" class="g">logs/log_20231001.txt</text></symbol><symbol id="24"><text x="0" y="1.67" class="g">d95f8058adacb12919ebd60695e2a68b356648881a80b9242e247446367e106f</text><text x="65.13" y="1.67" class="g">logs/log_summary.csv</text></symbol><symbol id="25"><text x="0" y="1.67" class="g">758731e88cfc3b608053808e3beeeb608f7ebf458cda1aa02901c31e7adaed17</text><text x="65.13" y="1.67" class="g">logs/log_20231002.txt</text></symbol><symbol id="a"><rect height="26" width="91" x="0" y="0" class="l"></rect></symbol><symbol id="b"><rect height="2.171" width="1.1022" class="m"></rect></symbol></defs><rect height="54.275" width="91" class="a"></rect><g class="o"><svg x="0" y="0" width="4186"><svg x="0"><use xlink:href="#a"></use><use xlink:href="#b" x="-0.0040000000000000036" y="0"></use></svg><svg x="91"><use xlink:href="#a"></use><use xlink:href="#b" x="11.996" y="0"></use><use xlink:href="#1" y="0"></use></svg><svg x="182"><use xlink:href="#a"></use><use xlink:href="#b" x="12.996" y="0"></use><text x="0" y="1.67" class="f">bxni</text><text x="4.008" y="1.67" class="g">:</text><text x="5.01" y="1.67" class="h">~/demo</text><text x="11.021999999999998" y="1.67" class="g">$h</text></svg><svg x="273"><use xlink:href="#a"></use><use xlink:href="#b" x="13.996" y="0"></use><text x="0" y="1.67" class="f">bxni</text><text x="4.008" y="1.67" class="g">:</text><text x="5.01" y="1.67" class="h">~/demo</text><text x="11.021999999999998" y="1.67" class="g">$ha</text></svg><svg x="364"><use xlink:href="#a"></use><use xlink:href="#b" x="14.996" y="0"></use><text x="0" y="1.67" class="f">bxni</text><text x="4.008" y="1.67" class="g">:</text><text x="5.01" y="1.67" class="h">~/demo</text><text x="11.021999999999998" y="1.67" class="g">$has</text></svg><svg x="455"><use xlink:href="#a"></use><use xlink:href="#b" x="15.996" y="0"></use><text x="0" y="1.67" class="f">bxni</text><text x="4.008" y="1.67" class="g">:</text><text x="5.01" y="1.67" class="h">~/demo</text><text x="11.021999999999998" y="1.67" class="g">$hash</text></svg><svg x="546"><use xlink:href="#a"></use><use xlink:href="#b" x="16.996" y="0"></use><text x="0" y="1.67" class="f">bxni</text><text x="4.008" y="1.67" class="g">:</text><text x="5.01" y="1.67" class="h">~/demo</text><text x="11.021999999999998" y="1.67" class="g">$hashe</text></svg><svg x="637"><use xlink:href="#a"></use><use xlink:href="#b" x="17.996" y="0"></use><use xlink:href="#2" y="0"></use></svg><svg x="728"><use xlink:href="#a"></use><use xlink:href="#b" x="18.996" y="0"></use><use xlink:href="#2" y="0"></use></svg><svg x="819"><use xlink:href="#a"></use><use xlink:href="#b" x="19.996" y="0"></use><text x="0" y="1.67" class="f">bxni</text><text x="4.008" y="1.67" class="g">:</text><text x="5.01" y="1.67" class="h">~/demo</text><text x="11.021999999999998" y="1.67" class="g">$hasher</text><text x="19.037999999999997" y="1.67" class="g">-</text></svg><svg x="910"><use xlink:href="#a"></use><use xlink:href="#b" x="20.996" y="0"></use><text x="0" y="1.67" class="f">bxni</text><text x="4.008" y="1.67" class="g">:</text><text x="5.01" y="1.67" class="h">~/demo</text><text x="11.021999999999998" y="1.67" class="g">$hasher</text><text x="19.037999999999997" y="1.67" class="g">-w</text></svg><svg x="1001"><use xlink:href="#a"></use><use xlink:href="#b" x="21.996" y="0"></use><use xlink:href="#3" y="0"></use></svg><svg x="1092"><use xlink:href="#a"></use><use xlink:href="#b" x="-0.0040000000000000036" y="2.146"></use><use xlink:href="#3" y="0"></use></svg><svg x="1183"><use xlink:href="#a"></use><use xlink:href="#b" x="41.996" y="2.146"></use><use xlink:href="#3" y="0"></use><use xlink:href="#4" y="2.171"></use></svg><svg x="1274"><use xlink:href="#a"></use><use xlink:href="#b" x="41.996" y="2.146"></use><use xlink:href="#3" y="0"></use><use xlink:href="#5" y="2.171"></use></svg><svg x="1365"><use xlink:href="#a"></use><use xlink:href="#b" x="41.996" y="2.146"></use><use xlink:href="#3" y="0"></use><use xlink:href="#6" y="2.171"></use></svg><svg x="1456"><use xlink:href="#a"></use><use xlink:href="#b" x="41.996" y="2.146"></use><use xlink:href="#3" y="0"></use><use xlink:href="#7" y="2.171"></use></svg><svg x="1547"><use xlink:href="#a"></use><use xlink:href="#b" x="41.996" y="2.146"></use><use xlink:href="#3" y="0"></use><use xlink:href="#4" y="2.171"></use></svg><svg x="1638"><use xlink:href="#a"></use><use xlink:href="#b" x="41.996" y="2.146"></use><use xlink:href="#3" y="0"></use><use xlink:href="#5" y="2.171"></use></svg><svg x="1729"><use xlink:href="#a"></use><use xlink:href="#b" x="41.996" y="2.146"></use><use xlink:href="#3" y="0"></use><use xlink:href="#6" y="2.171"></use></svg><svg x="1820"><use xlink:href="#a"></use><use xlink:href="#b" x="41.996" y="2.146"></use><use xlink:href="#3" y="0"></use><use xlink:href="#7" y="2.171"></use></svg><svg x="1911"><use xlink:href="#a"></use><use xlink:href="#b" x="41.996" y="2.146"></use><use xlink:href="#3" y="0"></use><use xlink:href="#4" y="2.171"></use></svg><svg x="2002"><use xlink:href="#a"></use><use xlink:href="#b" x="41.996" y="2.146"></use><use xlink:href="#3" y="0"></use><use xlink:href="#5" y="2.171"></use></svg><svg x="2093"><use xlink:href="#a"></use><use xlink:href="#b" x="41.996" y="2.146"></use><use xlink:href="#3" y="0"></use><use xlink:href="#6" y="2.171"></use></svg><svg x="2184"><use xlink:href="#a"></use><use xlink:href="#b" x="41.996" y="2.146"></use><use xlink:href="#3" y="0"></use><use xlink:href="#7" y="2.171"></use></svg><svg x="2275"><use xlink:href="#a"></use><use xlink:href="#b" x="-0.0040000000000000036" y="4.317"></use><use xlink:href="#3" y="0"></use><use xlink:href="#8" y="2.171"></use></svg><svg x="2366"><use xlink:href="#a"></use><use xlink:href="#b" x="11.996" y="4.317"></use><use xlink:href="#3" y="0"></use><use xlink:href="#8" y="2.171"></use><use xlink:href="#1" y="4.342"></use></svg><svg x="2457"><use xlink:href="#a"></use><use xlink:href="#b" x="12.996" y="4.317"></use><use xlink:href="#3" y="0"></use><use xlink:href="#8" y="2.171"></use><text x="0" y="6.012" class="f">bxni</text><text x="4.008" y="6.012" class="g">:</text><text x="5.01" y="6.012" class="h">~/demo</text><text x="11.021999999999998" y="6.012" class="g">$c</text></svg><svg x="2548"><use xlink:href="#a"></use><use xlink:href="#b" x="13.996" y="4.317"></use><use xlink:href="#3" y="0"></use><use xlink:href="#8" y="2.171"></use><text x="0" y="6.012" class="f">bxni</text><text x="4.008" y="6.012" class="g">:</text><text x="5.01" y="6.012" class="h">~/demo</text><text x="11.021999999999998" y="6.012" class="g">$ca</text></svg><svg x="2639"><use xlink:href="#a"></use><use xlink:href="#b" x="14.996" y="4.317"></use><use xlink:href="#3" y="0"></use><use xlink:href="#8" y="2.171"></use><use xlink:href="#9" y="4.342"></use></svg><svg x="2730"><use xlink:href="#a"></use><use xlink:href="#b" x="15.996" y="4.317"></use><use xlink:href="#3" y="0"></use><use xlink:href="#8" y="2.171"></use><use xlink:href="#9" y="4.342"></use></svg><svg x="2821"><use xlink:href="#a"></use><use xlink:href="#b" x="16.996" y="4.317"></use><use xlink:href="#3" y="0"></use><use xlink:href="#8" y="2.171"></use><text x="0" y="6.012" class="f">bxni</text><text x="4.008" y="6.012" class="g">:</text><text x="5.01" y="6.012" class="h">~/demo</text><text x="11.021999999999998" y="6.012" class="g">$cat</text><text x="16.032" y="6.012" class="g">d</text></svg><svg x="2912"><use xlink:href="#a"></use><use xlink:href="#b" x="17.996" y="4.317"></use><use xlink:href="#3" y="0"></use><use xlink:href="#8" y="2.171"></use><text x="0" y="6.012" class="f">bxni</text><text x="4.008" y="6.012" class="g">:</text><text x="5.01" y="6.012" class="h">~/demo</text><text x="11.021999999999998" y="6.012" class="g">$cat</text><text x="16.032" y="6.012" class="g">de</text></svg><svg x="3003"><use xlink:href="#a"></use><use xlink:href="#b" x="18.996" y="4.317"></use><use xlink:href="#3" y="0"></use><use xlink:href="#8" y="2.171"></use><text x="0" y="6.012" class="f">bxni</text><text x="4.008" y="6.012" class="g">:</text><text x="5.01" y="6.012" class="h">~/demo</text><text x="11.021999999999998" y="6.012" class="g">$cat</text><text x="16.032" y="6.012" class="g">dem</text></svg><svg x="3094"><use xlink:href="#a"></use><use xlink:href="#b" x="19.996" y="4.317"></use><use xlink:href="#3" y="0"></use><use xlink:href="#8" y="2.171"></use><text x="0" y="6.012" class="f">bxni</text><text x="4.008" y="6.012" class="g">:</text><text x="5.01" y="6.012" class="h">~/demo</text><text x="11.021999999999998" y="6.012" class="g">$cat</text><text x="16.032" y="6.012" class="g">demo</text></svg><svg x="3185"><use xlink:href="#a"></use><use xlink:href="#b" x="20.996" y="4.317"></use><use xlink:href="#3" y="0"></use><use xlink:href="#8" y="2.171"></use><text x="0" y="6.012" class="f">bxni</text><text x="4.008" y="6.012" class="g">:</text><text x="5.01" y="6.012" class="h">~/demo</text><text x="11.021999999999998" y="6.012" class="g">$cat</text><text x="16.032" y="6.012" class="g">demo.</text></svg><svg x="3276"><use xlink:href="#a"></use><use xlink:href="#b" x="21.996" y="4.317"></use><use xlink:href="#3" y="0"></use><use xlink:href="#8" y="2.171"></use><text x="0" y="6.012" class="f">bxni</text><text x="4.008" y="6.012" class="g">:</text><text x="5.01" y="6.012" class="h">~/demo</text><text x="11.021999999999998" y="6.012" class="g">$cat</text><text x="16.032" y="6.012" class="g">demo.s</text></svg><svg x="3367"><use xlink:href="#a"></use><use xlink:href="#b" x="22.996" y="4.317"></use><use xlink:href="#3" y="0"></use><use xlink:href="#8" y="2.171"></use><text x="0" y="6.012" class="f">bxni</text><text x="4.008" y="6.012" class="g">:</text><text x="5.01" y="6.012" class="h">~/demo</text><text x="11.021999999999998" y="6.012" class="g">$cat</text><text x="16.032" y="6.012" class="g">demo.sh</text></svg><svg x="3458"><use xlink:href="#a"></use><use xlink:href="#b" x="23.996" y="4.317"></use><use xlink:href="#3" y="0"></use><use xlink:href="#8" y="2.171"></use><text x="0" y="6.012" class="f">bxni</text><text x="4.008" y="6.012" class="g">:</text><text x="5.01" y="6.012" class="h">~/demo</text><text x="11.021999999999998" y="6.012" class="g">$cat</text><text x="16.032" y="6.012" class="g">demo.sha</text></svg><svg x="3549"><use xlink:href="#a"></use><use xlink:href="#b" x="24.996" y="4.317"></use><use xlink:href="#3" y="0"></use><use xlink:href="#8" y="2.171"></use><text x="0" y="6.012" class="f">bxni</text><text x="4.008" y="6.012" class="g">:</text><text x="5.01" y="6.012" class="h">~/demo</text><text x="11.021999999999998" y="6.012" class="g">$cat</text><text x="16.032" y="6.012" class="g">demo.sha2</text></svg><svg x="3640"><use xlink:href="#a"></use><use xlink:href="#b" x="25.996" y="4.317"></use><use xlink:href="#3" y="0"></use><use xlink:href="#8" y="2.171"></use><text x="0" y="6.012" class="f">bxni</text><text x="4.008" y="6.012" class="g">:</text><text x="5.01" y="6.012" class="h">~/demo</text><text x="11.021999999999998" y="6.012" class="g">$cat</text><text x="16.032" y="6.012" class="g">demo.sha25</text></svg><svg x="3731"><use xlink:href="#a"></use><use xlink:href="#b" x="26.996" y="4.317"></use><use xlink:href="#3" y="0"></use><use xlink:href="#8" y="2.171"></use><use xlink:href="#10" y="4.342"></use></svg><svg x="3822"><use xlink:href="#a"></use><use xlink:href="#b" x="-0.0040000000000000036" y="6.4879999999999995"></use><use xlink:href="#3" y="0"></use><use xlink:href="#8" y="2.171"></use><use xlink:href="#10" y="4.342"></use></svg><svg x="3913"><use xlink:href="#a"></use><use xlink:href="#b" x="-0.0040000000000000036" y="39.053000000000004"></use><use xlink:href="#3" y="0"></use><use xlink:href="#8" y="2.171"></use><use xlink:href="#10" y="4.342"></use><use xlink:href="#11" y="6.513"></use><use xlink:href="#12" y="8.684"></use><use xlink:href="#13" y="10.855"></use><use xlink:href="#14" y="13.026"></use><use xlink:href="#15" y="15.197"></use><use xlink:href="#16" y="17.368"></use><use xlink:href="#17" y="19.539"></use><use xlink:href="#18" y="21.71"></use><use xlink:href="#19" y="23.880999999999997"></use><use xlink:href="#20" y="26.052"></use><use xlink:href="#21" y="28.223000000000003"></use><use xlink:href="#22" y="30.394"></use><use xlink:href="#23" y="32.565"></use><use xlink:href="#24" y="34.736"></use><use xlink:href="#25" y="36.907000000000004"></use></svg><svg x="4004"><use xlink:href="#a"></use><use xlink:href="#b" x="11.996" y="39.053000000000004"></use><use xlink:href="#3" y="0"></use><use xlink:href="#8" y="2.171"></use><use xlink:href="#10" y="4.342"></use><use xlink:href="#11" y="6.513"></use><use xlink:href="#12" y="8.684"></use><use xlink:href="#13" y="10.855"></use><use xlink:href="#14" y="13.026"></use><use xlink:href="#15" y="15.197"></use><use xlink:href="#16" y="17.368"></use><use xlink:href="#17" y="19.539"></use><use xlink:href="#18" y="21.71"></use><use xlink:href="#19" y="23.880999999999997"></use><use xlink:href="#20" y="26.052"></use><use xlink:href="#21" y="28.223000000000003"></use><use xlink:href="#22" y="30.394"></use><use xlink:href="#23" y="32.565"></use><use xlink:href="#24" y="34.736"></use><use xlink:href="#25" y="36.907000000000004"></use><use xlink:href="#1" y="39.078"></use></svg><svg x="4095"><use xlink:href="#a"></use><use xlink:href="#b" x="-0.0040000000000000036" y="43.395"></use><use xlink:href="#3" y="0"></use><use xlink:href="#8" y="2.171"></use><use xlink:href="#10" y="4.342"></use><use xlink:href="#11" y="6.513"></use><use xlink:href="#12" y="8.684"></use><use xlink:href="#13" y="10.855"></use><use xlink:href="#14" y="13.026"></use><use xlink:href="#15" y="15.197"></use><use xlink:href="#16" y="17.368"></use><use xlink:href="#17" y="19.539"></use><use xlink:href="#18" y="21.71"></use><use xlink:href="#19" y="23.880999999999997"></use><use xlink:href="#20" y="26.052"></use><use xlink:href="#21" y="28.223000000000003"></use><use xlink:href="#22" y="30.394"></use><use xlink:href="#23" y="32.565"></use><use xlink:href="#24" y="34.736"></use><use xlink:href="#25" y="36.907000000000004"></use><use xlink:href="#1" y="39.078"></use><text x="0" y="42.919" class="g">exit</text></svg></svg></g></g></svg></svg>